<?xml version="1.0" standalone="no"?>
<!DOCTYPE svg PUBLIC "-//W3C//DTD SVG 20010904//EN"
 "http://www.w3.org/TR/2001/REC-SVG-20010904/DTD/svg10.dtd">
<svg version="1.0" xmlns="http://www.w3.org/2000/svg"
 width="1024.000000pt" height="1024.000000pt" viewBox="0 0 1024.000000 1024.000000"
 preserveAspectRatio="xMidYMid meet">

<g transform="translate(0.000000,1024.000000) scale(0.100000,-0.100000)"
fill="#000000" stroke="none">
<path d="M0 5120 l0 -5120 5120 0 5120 0 0 5120 0 5120 -5120 0 -5120 0 0
-5120z m5140 3856 c25 -73 76 -145 131 -185 43 -32 136 -66 208 -77 l44 -7
-54 -14 c-90 -22 -193 -78 -240 -131 -50 -57 -95 -147 -111 -224 -13 -63 -24
-73 -34 -30 -42 189 -109 285 -243 348 -29 14 -80 31 -113 38 l-60 12 59 11
c151 29 257 101 306 210 29 65 56 188 58 260 1 36 5 24 15 -51 7 -55 23 -127
34 -160z m847 114 l21 -25 -28 -34 -28 -33 -30 33 -30 34 31 32 c18 18 34 29
37 25 3 -4 15 -18 27 -32z m-1777 -200 c-15 -14 -30 -32 -33 -40 -6 -13 -8
-13 -14 0 -3 8 -19 27 -35 41 l-28 27 24 16 c14 8 28 25 31 37 7 20 9 19 44
-18 l37 -38 -26 -25z m316 -25 l23 -25 -26 -26 -26 -26 -25 26 -26 25 24 26
c13 14 26 25 28 25 3 0 15 -11 28 -25z m-1111 -265 c13 -6 15 -9 5 -9 -8 0
-22 4 -30 9 -18 12 -2 12 25 0z m-158 -6 c-3 -3 -12 -4 -19 -1 -8 3 -5 6 6 6
11 1 17 -2 13 -5z m3343 -10 c106 -63 61 -214 -64 -214 -47 0 -101 47 -110 95
-18 95 89 168 174 119z m-1325 -222 c-3 -3 -11 0 -18 7 -9 10 -8 11 6 5 10 -3
15 -9 12 -12z m2172 -38 l21 -23 -33 -35 -32 -35 -22 30 c-12 16 -28 29 -36
29 -20 0 -20 1 23 48 32 37 38 40 47 25 6 -9 20 -27 32 -39z m-2597 -53 c-8
-5 -31 -11 -50 -14 -35 -6 -35 -6 5 8 46 15 67 18 45 6z m-93 -27 c-3 -3 -12
-4 -19 -1 -8 3 -5 6 6 6 11 1 17 -2 13 -5z m418 -41 c39 -25 94 -68 123 -94
35 -32 58 -46 70 -43 14 5 15 4 2 -5 -10 -7 -11 -14 -5 -18 12 -9 39 -65 37
-75 -1 -5 2 -8 7 -8 6 0 9 -44 8 -102 -2 -80 -7 -113 -24 -149 -62 -137 -210
-215 -357 -188 -79 14 -123 38 -174 93 -90 98 -116 241 -65 371 5 14 3 16 -8
10 -11 -7 -12 -6 -2 7 7 8 10 18 6 22 -4 4 1 4 12 0 14 -6 17 -4 12 9 -3 9 -3
16 1 14 4 -1 24 17 45 40 38 41 210 163 231 163 6 0 43 -21 81 -47z m-478 31
c-3 -3 -12 -4 -19 -1 -8 3 -5 6 6 6 11 1 17 -2 13 -5z m-467 -14 c-8 -5 -19
-10 -25 -10 -5 0 -3 5 5 10 8 5 20 10 25 10 6 0 3 -5 -5 -10z m423 3 c-7 -2
-19 -2 -25 0 -7 3 -2 5 12 5 14 0 19 -2 13 -5z m-46 -9 c-3 -3 -12 -4 -19 -1
-8 3 -5 6 6 6 11 1 17 -2 13 -5z m-432 -14 c-27 -12 -43 -12 -25 0 8 5 22 9
30 9 10 0 8 -3 -5 -9z m388 3 c-7 -2 -19 -2 -25 0 -7 3 -2 5 12 5 14 0 19 -2
13 -5z m-443 -23 c-8 -5 -19 -10 -25 -10 -5 0 -3 5 5 10 8 5 20 10 25 10 6 0
3 -5 -5 -10z m315 -5 c-62 -17 -69 -17 -30 0 17 8 41 14 55 14 15 0 5 -6 -25
-14z m-375 -15 c-8 -5 -19 -10 -25 -10 -5 0 -3 5 5 10 8 5 20 10 25 10 6 0 3
-5 -5 -10z m267 -16 c-3 -3 -12 -4 -19 -1 -8 3 -5 6 6 6 11 1 17 -2 13 -5z
m-77 -23 c-8 -5 -26 -11 -40 -15 -21 -5 -20 -3 5 9 32 15 60 20 35 6z m-330
-21 c0 -5 -4 -10 -10 -10 -5 0 -10 5 -10 10 0 6 5 10 10 10 6 0 10 -4 10 -10z
m-35 -10 c-3 -5 -12 -10 -18 -10 -7 0 -6 4 3 10 19 12 23 12 15 0z m255 -4 c0
-2 -7 -7 -16 -10 -8 -3 -12 -2 -9 4 6 10 25 14 25 6z m-303 -21 c0 -8 -4 -12
-9 -9 -9 6 -51 -20 -44 -27 2 -2 -7 -5 -20 -5 -14 -1 -33 -9 -43 -18 -10 -9
-25 -16 -35 -16 -10 0 -14 -5 -10 -12 4 -7 3 -8 -4 -4 -14 8 -55 -18 -45 -28
4 -4 0 -4 -8 -1 -10 4 -16 0 -16 -9 0 -19 23 -28 51 -21 19 5 19 5 3 -5 -9 -6
-15 -15 -12 -21 9 -13 35 -11 33 3 -2 7 6 13 17 14 29 2 167 69 158 77 -3 4 1
7 10 7 8 0 24 3 34 6 45 16 -11 -18 -128 -78 -69 -36 -151 -81 -182 -101 -32
-21 -60 -37 -62 -37 -8 0 -133 -88 -203 -142 -34 -27 -68 -46 -74 -42 -6 4 -8
3 -4 -4 10 -17 -11 -24 -36 -12 -20 10 -21 10 -6 -3 16 -12 12 -17 -34 -58
-29 -24 -65 -57 -80 -73 -33 -34 -47 -30 -20 5 11 13 17 29 15 36 -2 6 5 14
16 18 20 6 20 6 0 26 -11 11 -24 17 -29 14 -15 -9 -12 24 3 38 71 69 125 105
150 103 14 -2 24 0 22 4 -3 4 3 14 12 21 15 12 16 12 10 -3 -3 -10 1 -22 11
-30 13 -11 14 -11 7 2 -5 8 -8 23 -7 33 3 18 -13 24 -23 7 -3 -5 -16 -15 -28
-20 -45 -22 50 52 174 135 92 61 363 214 435 245 0 0 1 -7 1 -15z m242 1 c-2
-2 -15 -9 -29 -15 -24 -11 -24 -11 -6 3 16 13 49 24 35 12z m-79 -31 c0 -2
-18 -14 -40 -25 -22 -11 -40 -17 -40 -12 0 5 15 16 33 25 34 17 47 20 47 12z
m687 -1 c-3 -3 -12 -4 -19 -1 -8 3 -5 6 6 6 11 1 17 -2 13 -5z m-67 -8 c0 -2
-31 -13 -70 -25 -38 -12 -70 -26 -70 -30 0 -5 -12 -7 -27 -5 -17 2 -20 1 -8
-2 31 -9 41 -22 22 -30 -9 -3 -17 -11 -17 -16 0 -6 6 -8 14 -5 8 3 20 -1 28
-10 11 -14 10 -16 -13 -10 -30 8 -55 -13 -45 -38 6 -17 4 -18 -18 -9 -14 5
-13 9 4 34 26 36 25 52 0 21 -11 -13 -20 -18 -20 -11 0 7 -7 10 -15 6 -9 -3
-15 0 -15 10 0 11 6 15 20 11 11 -3 18 -1 14 4 -3 5 3 9 13 9 10 0 25 5 33 11
11 8 6 9 -20 4 -27 -5 -32 -4 -20 5 12 9 12 10 -5 6 -170 -47 -195 -42 -34 7
180 55 249 73 249 63z m-795 -46 c3 -6 -1 -7 -9 -4 -18 7 -21 14 -7 14 6 0 13
-4 16 -10z m4135 -1 c0 -7 17 -28 37 -47 22 -20 33 -37 26 -39 -24 -8 -63 -45
-63 -59 0 -21 -28 -17 -35 6 -4 11 -19 28 -33 37 -15 9 -28 18 -30 19 -5 3 82
93 91 94 4 0 7 -5 7 -11z m-3735 -75 c-11 -8 -32 -18 -47 -21 -27 -5 -33 -21
-13 -35 6 -5 3 -8 -7 -8 -21 0 -32 17 -16 23 8 4 7 6 -4 6 -9 1 -20 -3 -23 -9
-3 -5 -15 -10 -25 -10 -10 0 -20 -4 -22 -8 -4 -9 -93 -52 -108 -52 -6 0 -8 -5
-4 -11 4 -8 -1 -9 -16 -4 -17 5 -21 4 -15 -5 5 -9 4 -11 -3 -6 -7 4 -12 1 -12
-8 0 -8 -5 -18 -12 -22 -8 -5 -9 -2 -4 11 5 15 4 16 -9 5 -19 -15 -19 -15 1
-35 9 -9 13 -19 9 -23 -4 -4 -9 -2 -12 3 -12 32 -21 37 -49 28 -29 -10 -35
-24 -13 -32 6 -2 9 1 5 7 -3 5 1 12 9 16 8 3 15 2 15 -3 0 -16 -25 -28 -55
-26 -16 1 -38 -3 -49 -8 -15 -7 -16 -11 -5 -19 10 -7 8 -7 -8 -3 -13 3 -23 2
-23 -3 0 -12 29 -24 41 -16 5 3 9 0 9 -5 0 -14 -9 -14 -49 0 -28 10 -35 9 -54
-9 -12 -11 -32 -23 -45 -27 -12 -3 -20 -10 -17 -15 3 -4 -5 -10 -17 -13 -19
-5 -20 -8 -7 -23 13 -16 12 -16 -10 -4 l-25 13 28 21 c113 85 410 244 581 310
102 40 108 41 80 20z m1426 -2 c-7 -2 -18 1 -23 6 -8 8 -4 9 13 5 13 -4 18 -8
10 -11z m-1461 -42 c0 -5 -2 -10 -4 -10 -3 0 -8 5 -11 10 -3 6 -1 10 4 10 6 0
11 -4 11 -10z m-125 -50 c-3 -5 -11 -10 -16 -10 -6 0 -7 5 -4 10 3 6 11 10 16
10 6 0 7 -4 4 -10z m-38 -16 c-3 -3 -12 -4 -19 -1 -8 3 -5 6 6 6 11 1 17 -2
13 -5z m3 -17 c23 1 23 1 2 -4 -12 -2 -19 -9 -16 -15 4 -6 -2 -6 -15 1 -11 7
-21 16 -21 22 0 6 6 7 13 2 6 -4 23 -7 37 -6z m687 -13 c-3 -3 -12 -4 -19 -1
-8 3 -5 6 6 6 11 1 17 -2 13 -5z m-98 -18 c-2 -2 -17 -6 -34 -10 -22 -5 -26
-4 -15 4 14 9 59 15 49 6z m-641 -23 c12 -3 22 -9 22 -14 0 -13 -38 -11 -46 2
-3 6 -14 9 -24 6 -13 -3 -17 0 -13 10 3 9 12 12 22 7 9 -3 26 -9 39 -11z m572
13 c0 -2 -7 -6 -15 -10 -8 -3 -15 -1 -15 4 0 6 7 10 15 10 8 0 15 -2 15 -4z
m-81 -30 c-2 -1 -19 -8 -36 -14 -37 -12 -45 -6 -10 8 22 9 54 13 46 6z m-529
-12 c0 -16 -33 -34 -64 -34 -26 0 -36 4 -36 16 0 12 7 14 28 10 15 -3 34 -2
42 4 17 11 30 13 30 4z m410 -28 c0 -2 -7 -6 -15 -10 -8 -3 -15 -1 -15 4 0 6
7 10 15 10 8 0 15 -2 15 -4z m-60 -26 c-8 -5 -19 -10 -25 -10 -5 0 -3 5 5 10
8 5 20 10 25 10 6 0 3 -5 -5 -10z m-574 -25 c18 -13 18 -14 -4 -8 -12 3 -25 9
-28 14 -8 14 10 11 32 -6z m424 -39 c0 -2 -7 -7 -16 -10 -8 -3 -12 -2 -9 4 6
10 25 14 25 6z m-1111 -43 c-19 -21 -20 -25 -6 -20 11 4 16 3 12 -3 -7 -12 -3
-12 19 -4 9 3 13 10 10 15 -7 12 7 11 26 -1 11 -7 12 -10 2 -10 -21 0 -45 -27
-29 -33 6 -2 9 -8 4 -12 -4 -5 -21 5 -38 21 -27 25 -31 26 -25 8 5 -15 2 -24
-10 -28 -11 -4 -15 -2 -11 8 4 10 1 13 -9 9 -18 -7 -18 -20 0 -30 8 -4 15 -12
15 -18 0 -5 6 -11 13 -12 19 -4 44 14 34 24 -5 4 -11 2 -13 -4 -8 -21 -22 -15
-16 7 6 23 16 25 30 8 20 -26 8 -52 -51 -112 -106 -106 -199 -216 -310 -366
-59 -80 -114 -154 -123 -165 -10 -11 -16 -20 -14 -20 2 0 -3 -12 -10 -27 -12
-28 -29 -38 -29 -18 0 6 -5 10 -10 10 -7 0 -6 -6 1 -18 9 -14 2 -32 -36 -97
-128 -216 -262 -544 -342 -835 -9 -34 -9 -34 -9 17 1 28 4 47 7 41 4 -6 10 -1
14 11 3 11 4 25 1 30 -4 5 -1 11 6 13 6 2 12 20 12 40 1 20 4 34 9 31 7 -4 11
19 8 51 -1 11 2 17 6 13 4 -4 19 27 35 70 29 83 32 97 20 89 -4 -2 -5 23 -2
57 7 73 0 121 -18 125 -9 2 -11 -4 -7 -18 4 -12 2 -20 -5 -20 -16 0 -38 -60
-35 -96 1 -25 -2 -30 -15 -27 -17 4 -30 -22 -35 -67 -1 -9 -7 -25 -14 -37 -6
-12 -11 -31 -11 -43 0 -14 -4 -19 -12 -14 -7 5 -9 2 -5 -9 3 -8 -3 -34 -14
-56 -10 -22 -16 -47 -12 -57 4 -12 3 -15 -5 -10 -7 4 -12 4 -13 -1 -4 -56 -12
-100 -21 -110 -6 -7 -11 -31 -12 -52 0 -22 -4 -34 -8 -28 -5 8 -8 5 -8 -7 0
-11 -2 -17 -6 -14 -19 19 123 461 209 649 13 30 27 64 31 77 4 12 11 20 15 18
4 -3 7 3 7 13 0 9 33 77 73 150 55 99 76 130 83 120 7 -11 8 -10 4 4 -6 20 28
79 126 215 33 45 64 80 69 77 5 -4 -2 -23 -16 -43 -24 -35 -24 -36 -5 -54 20
-19 31 -23 29 -10 -5 29 3 62 15 62 7 0 16 9 19 21 4 15 2 19 -8 15 -7 -2 -19
2 -26 10 -13 16 -19 9 85 127 52 58 71 75 78 65 6 -9 7 -6 3 8 -4 17 21 47
140 163 81 77 149 141 152 141 4 0 -4 -12 -18 -27z m492 4 c-6 -8 -8 -17 -4
-21 4 -4 0 -4 -10 0 -9 3 -17 2 -17 -4 0 -6 -16 -20 -35 -32 -19 -12 -32 -27
-29 -32 4 -7 2 -8 -5 -4 -7 5 -19 0 -29 -11 -9 -10 -35 -31 -57 -46 l-40 -28
45 41 c42 39 180 149 189 150 2 0 -2 -6 -8 -13z m4507 -22 c47 -20 107 -78
135 -130 19 -35 22 -55 21 -165 -1 -113 -4 -135 -33 -225 -89 -271 -301 -575
-546 -782 -247 -209 -550 -373 -802 -437 -150 -38 -197 -42 -243 -21 -22 10
-40 24 -40 31 0 7 -6 14 -12 17 -7 2 30 6 82 10 170 10 405 99 656 247 430
253 789 710 844 1074 24 158 -24 259 -139 292 -128 38 -347 -33 -541 -175 -65
-47 -83 -77 -25 -41 59 37 170 88 225 104 107 32 193 16 256 -48 47 -47 61
-97 48 -174 l-7 -47 -11 35 c-15 47 -35 81 -60 103 -105 93 -276 62 -322 -58
-20 -54 -10 -105 31 -149 14 -15 25 -29 25 -30 0 -2 -19 -12 -42 -21 -53 -22
-159 -22 -210 -1 -42 18 -59 20 -55 7 3 -12 -81 -92 -173 -165 -98 -77 -150
-127 -150 -143 0 -7 3 -12 8 -12 26 4 32 -4 32 -46 0 -43 -12 -59 -24 -32 -3
6 -3 1 0 -13 13 -56 65 -148 110 -195 26 -27 49 -49 51 -47 2 1 24 -9 51 -22
72 -38 32 -31 -52 9 -252 119 -322 458 -147 712 135 197 530 468 776 533 89
24 231 26 283 5z m-4008 -5 c-8 -5 -19 -10 -25 -10 -5 0 -3 5 5 10 8 5 20 10
25 10 6 0 3 -5 -5 -10z m290 -15 c0 -6 -76 -45 -87 -45 -4 1 12 12 37 25 50
27 50 27 50 20z m-331 -9 c-2 -2 -15 -9 -29 -15 -24 -11 -24 -11 -6 3 16 13
49 24 35 12z m-466 -30 c4 -10 1 -13 -9 -9 -7 3 -14 9 -14 14 0 14 17 10 23
-5z m372 -29 c-40 -27 -80 -51 -73 -43 13 15 73 55 83 56 5 0 1 -6 -10 -13z
m-465 -1 c0 -2 -8 -10 -17 -17 -16 -13 -17 -12 -4 4 13 16 21 21 21 13z m3800
-40 c0 -2 -26 -23 -57 -47 -75 -56 -178 -152 -278 -260 -309 -333 -534 -743
-551 -1003 -7 -110 -11 -126 -29 -120 -8 3 -17 16 -21 27 -7 22 -7 22 -14 2
-4 -11 -4 -22 0 -25 4 -3 4 -14 0 -25 -13 -34 -23 69 -17 159 28 382 386 916
810 1207 112 77 157 101 157 85z m-3957 -70 c-10 -13 -21 -22 -26 -19 -4 2 3
13 15 23 30 26 32 25 11 -4z m467 -1 c-7 -8 -17 -15 -23 -15 -6 0 -2 7 9 15
25 19 30 19 14 0z m-41 -37 c-2 -2 -20 -16 -39 -33 l-35 -30 34 37 c19 21 37
36 39 33 3 -3 3 -6 1 -7z m-494 -27 c-3 -6 -11 -11 -16 -11 -5 0 -4 6 3 14 14
16 24 13 13 -3z m-55 -35 c0 -2 -8 -10 -17 -17 -16 -13 -17 -12 -4 4 13 16 21
21 21 13z m-26 -53 c4 -10 4 -14 0 -10 -4 4 -19 -3 -32 -15 l-25 -23 13 25
c10 20 28 39 36 40 1 0 5 -8 8 -17z m-70 -58 c-4 -8 -11 -15 -16 -15 -6 0 -8
-7 -5 -15 4 -8 2 -17 -4 -20 -5 -4 -7 -11 -4 -16 3 -5 -2 -6 -11 -2 -13 5 -15
3 -9 -7 5 -9 4 -11 -3 -6 -7 4 -12 3 -12 -3 0 -5 6 -11 13 -14 6 -2 3 -3 -8
-1 -15 2 -21 -2 -21 -17 0 -14 5 -18 16 -13 37 15 48 15 54 -3 6 -14 5 -15 -5
-6 -8 8 -18 9 -30 2 -20 -10 -111 -128 -172 -221 -21 -32 -40 -58 -42 -58 -2
0 -7 6 -11 13 -4 6 -4 9 1 5 4 -4 21 10 36 32 33 45 39 70 12 49 -16 -13 -17
-12 -5 3 9 12 10 18 2 23 -7 4 -14 -2 -17 -14 -3 -11 -9 -18 -14 -15 -9 5 20
53 32 54 4 0 9 -10 13 -22 4 -18 8 -20 17 -11 10 10 9 17 -4 31 -15 16 -15 20
-1 40 8 12 20 20 25 17 5 -3 6 0 3 8 -3 9 4 22 18 31 12 9 19 16 14 16 -5 0
-1 9 9 20 10 11 22 17 28 13 6 -3 7 -1 3 5 -4 7 5 23 20 37 15 14 23 25 18 25
-4 0 7 16 26 35 38 39 42 41 34 20z m456 -8 c0 -2 -10 -12 -22 -23 l-23 -19
19 23 c18 21 26 27 26 19z m373 -12 c-3 -9 -8 -14 -10 -11 -3 3 -2 9 2 15 9
16 15 13 8 -4z m-453 -78 c0 -2 -15 -16 -32 -33 l-33 -29 29 33 c28 30 36 37
36 29z m1820 -59 c179 -42 356 -203 410 -370 11 -37 13 -38 58 -38 56 0 67 -7
81 -42 13 -35 12 -265 -1 -301 -12 -30 -40 -41 -92 -35 -33 4 -35 2 -64 -57
-86 -175 -294 -309 -502 -322 -239 -15 -464 111 -578 325 l-31 57 -44 -3 c-36
-3 -50 1 -66 17 -19 19 -21 32 -21 161 0 82 5 149 11 164 14 31 60 50 99 42
24 -4 30 -2 30 12 0 29 56 135 97 184 158 186 381 261 613 206z m1020 2 c0 -5
-4 -10 -10 -10 -5 0 -10 5 -10 10 0 6 5 10 10 10 6 0 10 -4 10 -10z m2649 -14
l23 -24 -23 -31 c-12 -17 -25 -31 -28 -30 -3 0 -16 13 -29 29 l-23 29 23 24
c29 32 30 32 57 3z m-5869 -26 c0 -5 -5 -10 -11 -10 -5 0 -7 5 -4 10 3 6 8 10
11 10 2 0 4 -4 4 -10z m-1556 -48 l27 -29 -32 -34 c-24 -25 -33 -30 -37 -20
-3 8 -15 25 -27 37 l-22 22 26 25 c14 13 29 25 32 26 3 0 18 -12 33 -27z
m1816 4 c0 -2 -8 -10 -17 -17 -16 -13 -17 -12 -4 4 13 16 21 21 21 13z m-317
-30 c-10 -13 -20 -22 -22 -20 -4 4 29 44 36 44 2 0 -4 -11 -14 -24z m-223 -96
c-6 -11 -13 -20 -16 -20 -2 0 0 9 6 20 6 11 13 20 16 20 2 0 0 -9 -6 -20z
m640 6 c0 -2 -8 -10 -17 -17 -16 -13 -17 -12 -4 4 13 16 21 21 21 13z m-684
-71 c-9 -14 -14 -31 -10 -38 4 -7 4 -9 -1 -5 -4 4 -14 0 -22 -10 -12 -15 -13
-14 -2 8 17 34 40 70 46 70 3 0 -2 -11 -11 -25z m148 0 c-9 -14 -18 -25 -21
-25 -5 0 5 18 20 38 17 22 18 13 1 -13z m-100 -23 c-35 -55 -44 -66 -44 -55 0
7 4 14 10 18 5 3 6 13 3 22 -4 11 -3 14 5 9 7 -4 12 -1 12 8 0 9 5 16 11 16 5
0 7 5 3 12 -4 7 -3 8 5 4 9 -6 8 -14 -5 -34z m6056 4 c11 -19 41 -46 65 -61
25 -14 45 -32 45 -40 0 -8 -22 -31 -50 -51 -27 -20 -50 -39 -50 -42 0 -4 -7
-16 -15 -27 -15 -19 -16 -18 -46 18 -17 21 -48 46 -69 57 -56 28 -57 44 -5 80
24 17 56 46 71 65 14 19 28 35 29 35 2 0 13 -15 25 -34z m-5312 -29 c-3 -28
-7 -32 -32 -32 -40 0 -54 37 -26 65 30 30 62 11 58 -33z m-853 -56 c-8 -17
-21 -33 -27 -37 -8 -5 -7 1 3 16 8 14 19 31 23 38 15 25 16 11 1 -17z m116
-54 c-10 -9 -11 -8 -5 6 3 10 9 15 12 12 3 -3 0 -11 -7 -18z m-163 -22 c-6
-14 -13 -23 -15 -21 -5 5 15 46 22 46 3 0 -1 -11 -7 -25z m-1264 -173 c10 -30
69 -81 111 -95 32 -11 40 -19 40 -38 0 -18 -10 -28 -40 -42 -22 -10 -60 -39
-85 -63 l-46 -44 -32 45 c-22 31 -47 52 -77 65 -63 27 -61 52 5 81 36 16 57
33 77 65 31 48 39 53 47 26z m857 -157 c-4 -17 -6 -15 -12 10 -3 17 -10 39
-14 50 -4 11 2 7 12 -10 11 -17 17 -39 14 -50z m5052 58 c-7 -2 -19 -2 -25 0
-7 3 -2 5 12 5 14 0 19 -2 13 -5z m-5090 -37 c-3 -4 -9 -2 -14 5 -13 22 -11
31 5 17 8 -7 12 -17 9 -22z m2292 -147 c4 -22 4 -43 1 -46 -3 -4 -6 -1 -6 5 0
7 -10 12 -23 12 -26 0 -77 -21 -77 -32 0 -4 -7 -4 -17 -1 -9 4 -14 2 -10 -3 3
-6 -3 -16 -13 -24 -10 -8 -17 -17 -14 -21 2 -4 -1 -11 -7 -15 -8 -4 -9 -3 -5
4 4 7 2 12 -4 12 -6 0 -13 -7 -16 -15 -4 -8 -10 -12 -15 -9 -5 3 -14 -7 -20
-23 -6 -15 -17 -35 -25 -44 -8 -8 -31 -69 -52 -134 -38 -116 -39 -118 -45 -79
-4 22 -2 80 3 129 23 203 130 322 292 324 l46 1 7 -41z m1417 31 c62 -18 133
-81 168 -153 36 -73 56 -219 42 -297 l-9 -45 -8 37 c-4 21 -11 36 -15 33 -10
-6 -54 105 -45 113 2 3 1 10 -4 16 -4 6 -11 22 -14 36 -6 24 -6 24 10 5 15
-19 15 -19 8 5 -25 88 -131 179 -237 204 -26 6 -33 0 -29 -26 0 -5 -4 -8 -9
-8 -14 0 -1 72 14 82 16 11 85 10 128 -2z m2783 -100 c-3 -5 -12 -7 -20 -3
-21 7 -19 13 6 13 11 0 18 -4 14 -10z m-55 -12 c0 -4 -6 -8 -14 -8 -8 0 -20
-2 -28 -3 -7 -2 -9 -2 -4 1 4 2 3 8 -3 12 -7 3 2 7 19 7 16 0 30 -4 30 -9z
m-4046 -95 c3 -23 9 -50 13 -60 6 -16 5 -16 -10 -4 -10 8 -20 11 -24 7 -3 -3
0 -6 7 -6 11 0 11 -3 2 -12 -18 -18 -15 -38 6 -31 9 4 19 10 22 14 3 5 11 0
17 -11 11 -17 9 -18 -17 -15 -16 2 -32 0 -34 -4 -3 -5 -17 -6 -31 -3 -24 4
-25 3 -15 -22 5 -14 16 -39 25 -56 32 -61 7 -49 -36 18 -19 30 -28 38 -23 22
7 -28 50 -117 68 -141 6 -8 -4 1 -22 20 -19 20 -42 52 -53 72 -20 40 -61 180
-55 187 3 2 35 23 73 47 74 46 76 45 87 -22z m1165 18 c35 -19 65 -41 68 -47
7 -19 -24 -119 -58 -186 -36 -71 -45 -75 -19 -8 25 64 25 74 0 33 -24 -41
-136 -153 -152 -153 -6 0 10 21 36 48 46 46 66 75 86 127 9 24 9 25 -13 14
-12 -7 -37 -25 -55 -40 -34 -30 -90 -61 -132 -74 -24 -7 -24 -7 5 19 93 83
119 112 121 133 2 22 1 23 -14 11 -9 -7 -20 -17 -24 -23 -4 -5 -8 -6 -8 -2 0
5 9 20 20 34 11 14 25 44 31 66 16 60 28 89 37 85 4 -2 36 -19 71 -37z m2865
-7 c4 -10 2 -13 -7 -7 -6 4 -23 6 -37 4 -24 -2 -24 -2 -5 12 21 17 41 13 49
-9z m-2600 -20 c3 -8 2 -12 -4 -9 -6 3 -10 10 -10 16 0 14 7 11 14 -7z m2673
-6 c-3 -8 -6 -5 -6 6 -1 11 2 17 5 13 3 -3 4 -12 1 -19z m-2766 -110 c65 -76
114 -153 144 -227 l26 -64 -42 -43 c-24 -24 -46 -44 -50 -44 -4 0 -10 19 -13
43 -7 47 -87 210 -123 251 -20 23 -22 30 -13 77 6 29 10 53 10 55 0 14 23 -4
61 -48z m-1533 -19 c10 -55 9 -63 -8 -82 -11 -11 -20 -24 -20 -28 0 -4 -6 -14
-13 -21 -23 -25 -133 -223 -159 -288 -39 -97 -54 -185 -37 -207 8 -10 -2 -5
-21 11 -19 16 -43 41 -54 57 -17 28 -17 32 -1 102 38 158 135 348 235 460 28
31 55 57 59 57 4 0 13 -27 19 -61z m-2269 -18 c-6 -29 -13 -50 -15 -48 -3 2 1
28 7 56 6 29 13 50 15 48 3 -2 -1 -28 -7 -56z m-894 -21 c15 -22 36 -42 46
-45 16 -5 14 -11 -20 -43 -21 -20 -41 -44 -44 -52 -5 -12 -9 -12 -19 5 -7 11
-26 32 -41 47 l-29 28 36 34 c20 18 36 41 36 50 0 23 4 20 35 -24z m762 18
c-3 -8 -6 -5 -6 6 -1 11 2 17 5 13 3 -3 4 -12 1 -19z m6424 -223 c-1 -98 -3
-180 -4 -181 -2 -2 -395 -51 -450 -56 l-28 -3 1 -600 c0 -330 -3 -609 -6 -621
-5 -19 -19 -23 -152 -38 -81 -9 -157 -19 -169 -22 l-23 -4 0 615 0 615 -25 0
c-14 0 -112 -11 -217 -25 -105 -14 -197 -25 -205 -25 -10 0 -13 38 -13 184 l0
184 63 7 c34 4 316 40 627 80 311 40 573 72 583 72 18 -2 19 -14 18 -182z
m-6314 143 c-3 -8 -6 -5 -6 6 -1 11 2 17 5 13 3 -3 4 -12 1 -19z m353 -69 c7
-17 30 -42 52 -56 21 -14 38 -31 38 -38 0 -6 -18 -26 -39 -43 -22 -18 -44 -47
-51 -67 -11 -34 -30 -40 -30 -8 0 25 -39 72 -77 91 l-35 18 45 37 c24 20 50
50 57 67 16 38 24 38 40 -1z m-493 -21 c-3 -7 -5 -2 -5 12 0 14 2 19 5 13 2
-7 2 -19 0 -25z m-10 -75 c-3 -10 -5 -2 -5 17 0 19 2 27 5 18 2 -10 2 -26 0
-35z m5033 -773 c0 -440 -1 -800 -2 -800 -2 0 -70 -9 -152 -20 -81 -11 -157
-20 -167 -20 -18 0 -19 22 -19 800 0 440 1 800 3 801 9 3 278 37 305 38 l32 1
0 -800z m-4913 738 c-3 -8 -6 -5 -6 6 -1 11 2 17 5 13 3 -3 4 -12 1 -19z
m-122 -28 c-4 -17 -9 -29 -12 -26 -3 2 -2 19 2 36 4 17 9 29 12 26 3 -2 2 -19
-2 -36z m4563 -19 c-23 -33 -128 -169 -232 -303 -273 -350 -278 -356 -330
-430 l-48 -68 94 -119 c51 -65 136 -172 188 -237 152 -189 275 -347 295 -376
13 -22 14 -28 4 -28 -8 0 -104 -11 -214 -25 -190 -24 -200 -24 -216 -8 -19 20
-262 381 -326 486 -23 37 -46 67 -50 67 -8 -1 -31 -32 -140 -189 l-53 -75 0
-188 c0 -157 -2 -188 -14 -188 -14 0 -208 -23 -288 -35 l-38 -5 0 803 0 804
138 17 c75 10 152 20 170 23 l32 5 1 -348 c1 -192 4 -362 8 -378 6 -28 14 -19
156 165 82 107 226 288 320 403 93 115 175 214 181 222 9 11 296 59 377 63
l29 1 -44 -59z m-3767 -51 c-18 -4 -40 -15 -49 -24 -21 -21 -3 -21 27 0 21 15
24 15 39 -1 16 -17 16 -17 0 -12 -10 4 -18 2 -18 -3 0 -12 23 -13 35 -1 6 5
19 5 30 1 18 -8 18 -9 -5 -10 -24 -2 -23 -3 5 -10 20 -5 24 -8 10 -9 -11 -1
-27 -6 -35 -12 -11 -7 -5 -8 21 -3 22 3 39 2 43 -5 4 -6 4 -11 -1 -12 -4 0
-46 -1 -93 -3 -52 -1 -99 -8 -123 -19 -20 -9 -40 -16 -42 -17 -21 -1 -131
-115 -175 -180 -52 -77 -73 -133 -167 -448 -41 -141 -90 -306 -108 -367 -18
-60 -38 -122 -44 -137 -5 -15 -35 -112 -66 -215 -31 -103 -67 -224 -80 -268
-42 -138 -125 -449 -125 -467 0 -9 -10 -26 -21 -37 l-22 -20 29 5 c18 3 24 1
16 -4 -7 -5 -10 -16 -6 -25 4 -12 1 -17 -10 -17 -9 0 -16 -4 -16 -9 0 -10 61
9 70 21 3 4 26 4 50 1 39 -6 42 -8 20 -14 -20 -6 -21 -7 -5 -8 11 0 27 3 34 8
15 10 15 10 -54 24 -12 3 -7 5 13 6 33 1 40 20 12 33 -10 4 -7 7 10 7 14 0 74
7 134 15 60 9 112 14 114 11 3 -3 -3 -5 -14 -6 -18 0 -18 -1 1 -9 13 -5 -2 -7
-40 -5 -33 2 -49 2 -35 -1 14 -3 29 -10 35 -15 13 -13 -22 -12 -47 2 -14 8
-23 8 -31 0 -8 -8 -4 -11 13 -12 17 -1 11 -5 -20 -13 l-45 -12 60 -7 c33 -3
95 -3 138 1 42 4 77 5 77 2 0 -6 -559 -75 -564 -69 -8 10 26 253 49 353 37
161 58 235 66 230 4 -2 1 -21 -6 -41 -7 -21 -15 -57 -19 -80 -5 -34 -3 -44 11
-52 19 -10 21 -3 25 91 1 23 5 33 10 25 5 -8 8 -4 8 11 0 14 4 20 10 17 6 -4
8 -16 5 -28 -5 -20 -4 -19 8 2 11 18 16 21 19 10 3 -8 3 -4 2 8 -2 12 1 25 7
29 6 4 9 19 5 36 -5 25 -3 28 7 19 11 -9 14 -3 15 29 1 29 -3 42 -14 47 -15 5
-15 7 0 15 9 5 16 17 16 26 1 15 3 14 17 -3 13 -16 15 -17 10 -2 -4 9 -3 17 2
17 5 0 11 12 13 28 3 15 8 36 12 47 4 11 -2 3 -14 -17 -24 -44 -34 -50 -20
-12 13 33 13 34 -6 27 -8 -3 -13 -11 -11 -17 2 -6 0 -20 -5 -31 -6 -14 -7 -8
-4 21 2 23 0 48 -5 55 -6 10 -9 7 -10 -11 -1 -14 -1 -34 -1 -45 2 -15 0 -16
-7 -7 -10 17 -41 -74 -44 -129 -1 -22 -4 -33 -9 -26 -4 7 -8 -2 -8 -22 0 -22
-4 -31 -9 -25 -6 5 4 59 29 144 57 197 105 348 112 356 9 8 22 -62 15 -81 -4
-8 -2 -17 3 -20 14 -8 13 68 -1 98 -8 19 -6 40 11 98 12 41 26 79 31 85 5 6 7
13 4 15 -4 4 19 86 63 229 43 136 94 307 107 355 17 64 67 176 108 240 40 65
147 168 195 189 20 10 44 21 52 26 31 20 65 31 82 27 10 -3 18 -1 18 3 0 9 36
17 80 17 19 1 16 -1 -9 -7z m134 -20 c8 -13 -5 -13 -25 0 -13 8 -13 10 2 10 9
0 20 -4 23 -10z m-948 -32 c-3 -8 -6 -5 -6 6 -1 11 2 17 5 13 3 -3 4 -12 1
-19z m-10 -100 c-2 -13 -4 -5 -4 17 -1 22 1 32 4 23 2 -10 2 -28 0 -40z m3003
-742 c0 -488 -4 -797 -9 -801 -11 -6 -301 -45 -342 -45 -31 0 -57 33 -423 519
l-221 294 -3 -446 -2 -447 -23 -4 c-60 -13 -309 -38 -315 -32 -3 4 -8 360 -10
791 -3 655 -2 785 9 785 8 0 82 9 164 20 l150 18 25 -31 c14 -17 48 -60 75
-96 159 -208 498 -642 529 -676 l35 -40 1 473 c0 259 3 472 8 473 180 22 303
36 325 38 l27 1 0 -794z m-3629 666 c9 -16 12 -32 7 -37 -5 -6 -14 -18 -21
-28 -12 -17 -14 -16 -36 13 l-23 32 23 24 c28 30 31 30 50 -4z m1746 -9 c-3
-10 -5 -4 -5 12 0 17 2 24 5 18 2 -7 2 -21 0 -30z m6102 -7 c23 -24 23 -24 3
-44 -11 -11 -21 -25 -24 -32 -2 -8 -16 -1 -37 20 l-33 33 29 23 c35 29 35 29
62 0z m-6348 -52 c16 -14 41 -71 222 -499 47 -110 135 -319 197 -465 61 -146
122 -290 135 -320 13 -30 46 -107 73 -170 28 -63 49 -117 47 -118 -5 -6 -284
-42 -321 -42 -26 0 -33 6 -52 45 -12 25 -33 62 -46 83 l-24 39 -79 -12 c-43
-7 -168 -23 -278 -35 -110 -13 -209 -26 -220 -30 -15 -6 -29 -32 -49 -88 -15
-44 -33 -87 -39 -95 -8 -10 -63 -22 -171 -36 -88 -12 -161 -19 -163 -18 -1 2
49 150 113 328 63 178 158 446 210 594 52 149 106 302 120 340 14 39 55 152
90 252 73 212 84 235 116 250 52 26 88 25 119 -3z m6285 -693 l-23 -23 -27 23
-26 23 27 28 27 28 22 -27 23 -28 -23 -24z m-310 -309 c34 -64 68 -88 174
-123 l65 -22 -30 -11 c-61 -22 -98 -53 -141 -118 -24 -38 -46 -68 -49 -68 -2
0 -1 16 2 34 10 65 -5 121 -47 169 -22 24 -53 51 -70 59 l-31 15 24 29 c13 16
32 44 42 62 11 17 22 32 25 32 3 0 19 -26 36 -58z m-7390 -92 c18 -27 43 -48
75 -63 41 -18 49 -26 49 -49 0 -23 -7 -31 -49 -49 -33 -14 -59 -34 -77 -60
-15 -21 -28 -39 -29 -39 -1 0 -14 18 -28 39 -18 26 -43 48 -77 63 -65 30 -68
58 -11 88 22 11 56 40 76 65 21 25 39 45 41 45 2 0 16 -18 30 -40z m541 -222
c-3 -8 -6 -5 -6 6 -1 11 2 17 5 13 3 -3 4 -12 1 -19z m4884 -57 c66 -67 6
-174 -88 -156 -39 7 -73 52 -73 98 0 43 49 87 95 87 27 0 44 -8 66 -29z
m-4892 -111 c0 -10 -3 -8 -9 5 l-9 20 -1 -20 c-2 -11 -1 -27 0 -35 2 -18 -3
-13 -20 19 -6 13 -7 21 -2 17 6 -3 14 3 17 15 6 17 9 19 16 8 5 -8 8 -21 8
-29z m3689 -27 c-10 -2 -26 -2 -35 0 -10 3 -2 5 17 5 19 0 27 -2 18 -5z m-98
-7 c0 -2 -7 -6 -15 -10 -8 -3 -15 -1 -15 4 0 6 7 10 15 10 8 0 15 -2 15 -4z
m-99 -17 c-25 -5 -47 -12 -50 -17 -9 -13 -50 -21 -57 -11 -6 11 -71 11 -98 0
-11 -4 -31 -5 -45 -2 -16 3 27 12 104 22 144 18 220 23 146 8z m446 -5 c-3 -3
-12 -4 -19 -1 -8 3 -5 6 6 6 11 1 17 -2 13 -5z m-78 -8 c-8 -7 -269 -38 -282
-33 -6 3 4 6 23 7 19 1 64 7 100 14 67 11 167 19 159 12z m-644 -26 c21 -9 13
-11 -74 -14 -19 0 -36 -7 -38 -13 -3 -7 0 -13 6 -13 6 0 11 5 11 10 0 6 8 10
18 10 14 0 15 -2 2 -10 -11 -7 -11 -10 -2 -10 7 0 10 -4 7 -10 -8 -12 0 -13
23 -1 9 5 78 15 152 21 74 6 154 16 178 22 26 7 47 7 52 2 9 -9 -253 -44
-1145 -155 -132 -16 -321 -40 -421 -52 l-181 -23 -21 30 c-12 16 -19 32 -16
35 3 3 9 0 13 -7 6 -10 11 -10 21 3 13 16 65 22 56 6 -4 -5 0 -11 6 -14 7 -2
-5 -4 -27 -3 -29 1 -40 -3 -40 -14 0 -11 13 -16 45 -17 30 -2 39 0 26 6 -19 7
-19 8 2 13 14 4 20 2 15 -5 -4 -7 0 -8 11 -4 10 4 35 7 57 7 34 0 38 2 27 14
-7 8 -14 10 -16 5 -2 -5 -13 -9 -25 -8 -21 0 -21 1 -3 8 14 5 16 10 8 15 -7 4
-16 5 -21 2 -5 -4 -19 -2 -32 2 -29 11 166 36 207 27 19 -4 24 -3 16 3 -12 8
173 34 223 31 29 -2 -62 -17 -115 -19 -38 -2 -41 -3 -20 -10 23 -7 22 -8 -11
-9 -21 -1 -42 -8 -50 -18 -13 -15 -8 -16 61 -8 41 4 93 9 115 9 22 1 60 6 85
11 l45 10 -65 6 -65 6 62 1 c34 1 64 -2 68 -7 6 -10 40 -7 135 11 61 12 85 14
210 24 46 4 76 10 66 13 -15 6 12 9 132 13 21 1 28 4 20 10 -9 5 -5 8 12 9 14
0 34 4 45 9 13 6 5 7 -24 3 -30 -4 -42 -3 -38 5 5 6 -1 8 -15 4 -21 -5 -21 -6
-2 -13 22 -9 -7 -12 -113 -11 -35 0 -63 -4 -63 -9 0 -5 -35 -8 -77 -6 -43 1
-105 -1 -138 -5 l-60 -7 50 10 c44 10 557 76 595 77 8 0 24 -3 35 -8z m-298
-66 c-3 -3 -12 -4 -19 -1 -8 3 -5 6 6 6 11 1 17 -2 13 -5z m-432 -24 c-27 -12
-43 -12 -25 0 8 5 22 9 30 9 10 0 8 -3 -5 -9z m150 0 c-3 -5 -21 -10 -38 -9
-27 0 -29 2 -12 9 28 12 57 12 50 0z m-200 -10 c7 -12 -19 -12 -55 0 -22 7
-21 8 12 9 20 1 40 -3 43 -9z m-150 -40 c-3 -5 -16 -10 -28 -9 -20 1 -20 2 3
9 14 4 26 8 28 9 2 1 0 -3 -3 -9z m-77 -17 c-10 -2 -28 -2 -40 0 -13 2 -5 4
17 4 22 1 32 -1 23 -4z m-1791 -179 c-3 -3 -12 -4 -19 -1 -8 3 -5 6 6 6 11 1
17 -2 13 -5z m-72 -14 c-11 -5 -27 -9 -35 -9 -13 -1 -13 0 0 9 8 5 24 9 35 9
l20 0 -20 -9z m-350 -50 c-3 -5 -12 -10 -18 -10 -7 0 -6 4 3 10 19 12 23 12
15 0z m6550 -34 c11 -57 4 -71 -34 -71 -25 0 -39 7 -54 28 -24 31 -17 44 36
64 46 16 45 16 52 -21z m-5985 -59 c0 -2 -12 -14 -27 -28 l-28 -24 24 28 c23
25 31 32 31 24z m-199 -70 c-10 -9 -11 -8 -5 6 3 10 9 15 12 12 3 -3 0 -11 -7
-18z m119 -9 c-13 -13 -19 -16 -15 -8 14 25 28 41 32 36 3 -3 -5 -15 -17 -28z
m1189 -55 c20 -21 45 -44 56 -51 13 -8 16 -14 8 -18 -29 -13 -65 -49 -82 -82
l-18 -36 -21 46 c-13 31 -29 50 -51 59 -39 17 -39 33 -1 49 17 7 38 26 47 41
10 16 19 29 22 29 2 0 20 -17 40 -37z m-1355 -28 c-14 -30 -22 -60 -18 -67 5
-10 4 -10 -6 -1 -10 9 -7 23 13 67 14 31 28 56 31 56 3 0 -6 -25 -20 -55z
m146 52 c0 -2 -12 -14 -27 -28 l-28 -24 24 28 c23 25 31 32 31 24z m-59 -94
c-12 -20 -14 -14 -5 12 4 9 9 14 11 11 3 -2 0 -13 -6 -23z m-20 -55 c-3 -21
-6 -26 -9 -15 -3 17 3 47 11 47 2 0 1 -15 -2 -32z m-102 -10 c-4 -68 0 -90 17
-84 8 3 13 2 10 -3 -3 -5 1 -12 10 -15 8 -3 12 -10 9 -16 -3 -5 3 -10 14 -10
17 0 21 8 24 53 l3 52 2 -57 c1 -31 7 -69 13 -85 19 -46 18 -86 -2 -120 -20
-31 -20 -31 3 -47 20 -14 24 -14 40 1 18 16 18 16 12 0 -3 -9 -11 -17 -17 -17
-11 0 -1 -14 11 -16 4 0 15 -4 25 -9 11 -4 23 -3 30 4 13 13 53 13 82 1 14 -6
7 -8 -25 -5 -25 2 -37 2 -27 -1 9 -3 15 -9 12 -13 -6 -11 133 -5 174 8 19 6
37 9 39 6 10 -9 -108 -33 -173 -34 -52 0 -81 5 -120 23 -47 21 -146 104 -128
108 4 0 15 1 23 2 8 1 16 10 18 21 2 14 0 16 -6 7 -6 -9 -12 -6 -22 13 -7 14
-17 25 -22 25 -5 0 -4 -9 2 -20 6 -11 8 -25 4 -32 -13 -21 -47 66 -52 134 -4
64 4 158 14 158 3 0 5 -15 3 -32z m1571 -49 c0 -5 -4 -9 -10 -9 -5 0 -10 7
-10 16 0 8 5 12 10 9 6 -3 10 -10 10 -16z m-965 -139 c-3 -5 -12 -10 -18 -10
-7 0 -6 4 3 10 19 12 23 12 15 0z m-45 -25 c-7 -8 -17 -15 -23 -15 -6 0 -2 7
9 15 25 19 30 19 14 0z m-390 -53 c0 -2 -4 -1 -9 2 -5 3 -15 -1 -22 -10 -10
-13 -10 -17 2 -26 11 -8 10 -9 -4 -4 -10 3 -21 6 -23 6 -3 0 2 10 10 21 8 12
12 28 9 36 -5 12 -1 11 15 -3 12 -10 22 -20 22 -22z m530 23 c0 -2 -10 -10
-22 -16 -21 -11 -22 -11 -9 4 13 16 31 23 31 12z m-220 -15 c-12 -8 -12 -10
-1 -10 8 0 12 -2 9 -5 -3 -3 -13 -2 -22 1 -14 5 -15 9 -4 15 7 5 18 9 23 9 6
0 3 -5 -5 -10z m-75 -30 c-3 -5 -14 -10 -23 -9 -14 0 -13 2 3 9 27 11 27 11
20 0z m-78 -20 c-39 -7 -84 -3 -91 9 -2 3 26 4 62 2 61 -4 63 -5 29 -11z m278
10 c-3 -5 -16 -15 -28 -21 -19 -9 -19 -8 3 10 28 23 34 26 25 11z m-480 -28
c-3 -3 -11 0 -18 7 -9 10 -8 11 6 5 10 -3 15 -9 12 -12z m211 -9 c-15 -4 -16
-7 -5 -15 11 -8 10 -9 -4 -4 -10 3 -28 7 -40 7 -17 1 -15 3 8 9 17 4 37 8 45
8 8 0 6 -3 -4 -5z m159 -25 c-9 -6 -19 -7 -22 -4 -4 3 -1 6 6 6 7 0 9 4 6 10
-4 6 1 7 11 3 15 -6 15 -7 -1 -15z m5072 -120 c-38 -14 -79 -55 -62 -62 7 -2
24 -2 37 1 16 3 11 -3 -17 -20 -22 -14 -66 -55 -98 -91 -33 -37 -63 -63 -69
-60 -6 4 -8 2 -4 -4 7 -12 -98 -110 -141 -132 -15 -8 -39 -22 -52 -32 -13 -10
-27 -15 -32 -12 -5 3 -9 1 -9 -4 0 -5 -10 -12 -22 -15 -22 -6 -22 -6 2 14 21
17 21 20 5 14 -16 -5 -17 -4 -8 6 9 9 16 9 26 1 19 -16 64 15 47 32 -8 8 -15
7 -24 -6 -7 -10 -16 -15 -19 -12 -10 10 77 72 87 63 6 -5 2 -17 -9 -29 -25
-28 -9 -25 26 4 27 23 28 25 9 31 -18 6 -17 8 12 40 17 19 35 32 39 29 5 -3 9
1 9 9 0 20 33 60 53 63 10 1 15 -5 14 -17 -2 -24 -14 -25 -19 -1 -2 10 -6 13
-10 7 -4 -6 -3 -17 2 -25 7 -11 14 -12 26 -4 20 12 26 53 11 72 -7 9 -6 11 8
6 13 -5 16 -4 11 4 -4 7 -2 12 4 12 6 0 8 5 5 10 -7 12 12 40 26 40 5 0 9 -4
9 -10 0 -5 -5 -9 -11 -7 -6 1 -14 -4 -17 -12 -3 -10 0 -11 9 -5 12 6 12 5 0
-9 -8 -10 -11 -21 -7 -25 4 -4 12 1 17 11 6 9 14 15 20 12 5 -4 16 1 25 9 8 9
11 16 5 16 -6 0 -11 5 -11 11 0 8 5 7 15 -1 9 -7 19 -10 22 -6 10 10 -19 27
-35 21 -8 -3 -18 -2 -23 1 -21 13 88 74 131 73 8 0 2 -5 -13 -11z m-2413 -187
c95 -34 97 -40 14 -68 -63 -21 -121 -50 -219 -111 -25 -15 -28 -15 -56 9 -43
36 -181 106 -225 114 -21 4 -38 11 -38 15 0 9 90 46 145 59 22 6 103 9 180 7
112 -3 152 -7 199 -25z m-199 -248 c12 -63 69 -175 117 -228 59 -64 134 -109
227 -134 84 -23 98 -31 54 -31 -33 0 -120 -28 -174 -55 -91 -47 -168 -141
-202 -250 -9 -27 -23 -93 -31 -145 -12 -84 -14 -89 -15 -42 -2 130 -49 271
-115 349 -65 75 -203 142 -300 144 -39 1 -38 1 25 18 204 55 308 151 365 338
14 46 29 81 34 78 4 -2 11 -22 15 -42z m-2201 -60 l29 -33 -25 -23 c-14 -13
-28 -30 -30 -38 -4 -10 -14 -6 -36 19 -17 17 -37 32 -44 32 -8 0 -4 8 8 18 12
9 29 30 39 45 10 15 21 24 24 20 3 -4 19 -23 35 -40z m4281 37 c-27 -12 -43
-12 -25 0 8 5 22 9 30 9 10 0 8 -3 -5 -9z m-3435 -68 c33 -32 40 -46 40 -76 0
-118 -128 -168 -207 -82 -55 60 -42 132 31 177 50 30 89 25 136 -19z m3009
-256 l22 -24 -23 -25 -24 -25 -22 25 c-21 24 -21 25 -4 48 21 30 23 30 51 1z
m-637 -266 l-27 -27 -26 26 -27 26 27 27 26 27 27 -26 27 -26 -27 -27z"/>
<path d="M6505 8510 c-17 -18 -17 -21 -1 -45 19 -28 47 -32 70 -9 19 18 20 28
6 55 -14 25 -52 24 -75 -1z"/>
<path d="M5040 8063 c-8 -2 -22 -7 -30 -9 -13 -5 -13 -6 0 -15 12 -9 12 -10
-3 -5 -24 8 -57 -10 -57 -31 0 -9 -3 -13 -6 -10 -9 9 -44 -37 -44 -57 0 -9 -4
-16 -9 -16 -5 0 -12 -24 -15 -54 -6 -41 -3 -62 9 -85 8 -17 15 -34 15 -38 -1
-5 13 -25 31 -46 24 -28 37 -36 53 -32 15 5 17 3 8 -3 -21 -15 45 -37 108 -37
169 1 272 188 184 332 -39 64 -114 109 -181 111 -26 0 -55 -2 -63 -5z m90
-103 c16 0 32 -5 36 -11 4 -8 -1 -9 -16 -4 -15 5 -20 4 -16 -4 4 -6 13 -11 20
-11 18 0 37 -62 30 -99 -12 -60 -93 -93 -136 -54 -10 9 -21 13 -25 9 -4 -4 -1
-12 7 -17 13 -9 13 -10 0 -6 -9 2 -14 14 -13 26 2 12 0 20 -5 18 -12 -8 -7 66
7 93 11 24 11 24 -3 6 -9 -11 -16 -15 -16 -9 0 15 36 44 44 36 4 -5 6 -2 4 6
-2 9 6 16 17 18 17 3 18 2 5 -7 -13 -9 -12 -11 5 -8 13 3 19 11 18 23 -1 11 0
14 3 8 3 -7 19 -13 34 -13z m-194 -228 c-17 -16 -18 -16 -5 5 7 12 15 20 18
17 3 -2 -3 -12 -13 -22z m221 -88 c-3 -3 -12 -4 -19 -1 -8 3 -5 6 6 6 11 1 17
-2 13 -5z m-60 -10 c-3 -3 -12 -4 -19 -1 -8 3 -5 6 6 6 11 1 17 -2 13 -5z"/>
<path d="M3556 7919 c-20 -16 -25 -26 -20 -45 5 -17 2 -24 -9 -24 -9 0 -14 7
-12 18 1 9 0 11 -2 5 -3 -7 -9 -13 -14 -13 -6 0 -7 5 -3 11 4 7 1 10 -7 7 -8
-3 -13 -10 -12 -16 2 -6 -3 -9 -10 -6 -11 4 -86 -45 -147 -96 l-24 -21 22 -6
c12 -3 22 -11 22 -18 0 -24 31 -25 61 -3 34 26 34 25 12 37 -13 6 -22 4 -32
-6 -12 -13 -11 -14 9 -8 26 8 20 -9 -9 -25 -16 -8 -18 -5 -15 17 4 41 20 50
54 31 25 -14 31 -14 47 -2 16 13 16 13 1 8 -20 -7 -24 6 -6 24 9 9 6 16 -12
32 -26 22 -14 28 15 6 10 -7 28 -11 39 -9 20 4 20 4 4 -10 -36 -29 -17 -27 27
3 25 17 45 37 45 45 0 9 9 15 21 15 19 0 19 -1 5 -16 -26 -25 -18 -26 14 -3
l29 22 -25 24 c-14 12 -30 23 -37 23 -7 0 -6 4 3 10 8 5 10 10 4 10 -6 0 -23
-9 -38 -21z m64 -34 c11 -13 10 -14 -4 -9 -9 3 -16 10 -16 15 0 13 6 11 20 -6z
m-115 -45 c-3 -5 -11 -10 -16 -10 -6 0 -7 5 -4 10 3 6 11 10 16 10 6 0 7 -4 4
-10z m45 -4 c0 -11 -19 -15 -25 -6 -3 5 1 10 9 10 9 0 16 -2 16 -4z m-114 -30
c20 -21 17 -28 -6 -14 -11 7 -20 16 -20 20 0 12 10 9 26 -6z m-5 -32 l24 -27
-26 17 c-29 19 -84 13 -72 -8 3 -6 4 -9 0 -6 -12 11 -7 23 15 35 32 18 32 18
59 -11z"/>
<path d="M3283 7643 c0 -8 6 -9 19 -2 10 5 18 11 18 12 0 2 -8 3 -18 3 -10 0
-19 -6 -19 -13z"/>
<path d="M3144 7627 c-16 -11 -39 -29 -51 -40 l-22 -20 25 -20 c14 -10 28 -16
32 -12 4 4 -3 15 -16 25 -22 18 -22 19 -2 17 11 -1 20 -5 20 -9 0 -5 9 -3 20
4 26 17 26 28 -1 21 -21 -6 -21 -5 2 21 13 15 28 25 34 22 7 -2 18 -1 24 4 9
5 5 8 -11 8 -13 0 -37 -10 -54 -21z"/>
<path d="M3170 7616 c0 -2 7 -7 16 -10 8 -3 12 -2 9 4 -6 10 -25 14 -25 6z"/>
<path d="M3175 7560 c-3 -5 -1 -10 4 -10 6 0 11 5 11 10 0 6 -2 10 -4 10 -3 0
-8 -4 -11 -10z"/>
<path d="M3141 7532 c-7 -13 -11 -26 -8 -28 8 -8 29 25 25 38 -3 8 -9 4 -17
-10z"/>
<path d="M2898 7400 c-54 -54 -82 -95 -38 -55 11 10 20 13 20 7 0 -16 -36 -33
-54 -26 -23 9 -19 -3 5 -16 16 -9 25 -8 40 6 12 11 19 13 19 5 0 -7 5 -9 12
-5 8 5 9 2 5 -9 -5 -14 -3 -15 13 -4 11 6 18 18 15 26 -3 8 0 11 10 8 9 -4 24
6 39 25 24 31 24 32 5 46 -10 7 -19 19 -19 27 0 29 -17 21 -72 -35z m62 36 c0
-9 -32 -36 -42 -36 -6 0 -1 9 12 20 23 20 30 24 30 16z m30 -51 c0 -4 -7 -5
-14 -2 -8 3 -29 -1 -46 -10 -25 -12 -34 -13 -43 -3 -8 9 -8 11 -1 7 14 -8 74
20 74 34 0 6 7 4 15 -5 8 -8 15 -18 15 -21z m-72 -53 c2 -7 -2 -10 -12 -6 -9
3 -16 11 -16 16 0 13 23 5 28 -10z"/>
<path d="M2785 7290 c-9 -10 -14 -24 -10 -30 9 -15 -13 -40 -31 -33 -8 3 -14
0 -14 -6 0 -15 33 -14 48 1 9 9 12 9 12 0 0 -7 -5 -12 -11 -12 -5 0 -7 -5 -3
-11 4 -8 0 -9 -15 -4 -16 5 -20 3 -15 -9 3 -9 1 -16 -5 -16 -6 0 -11 8 -11 18
0 28 -11 34 -26 14 -19 -25 -17 -37 4 -21 9 7 6 1 -7 -13 -13 -15 -29 -24 -37
-21 -17 6 -19 -13 -1 -21 6 -3 3 -4 -7 -3 -12 1 -25 -7 -31 -20 -7 -13 -14
-21 -16 -18 -3 2 -5 -5 -5 -15 0 -18 1 -18 20 -2 11 9 16 12 13 5 -4 -6 -3
-22 2 -35 7 -19 3 -31 -20 -63 -16 -21 -29 -46 -29 -54 0 -12 -6 -9 -20 9
l-20 25 0 -27 c0 -15 -4 -30 -10 -33 -16 -10 -12 -25 6 -25 14 0 14 -2 3 -16
-11 -13 -14 -13 -18 -3 -2 8 -10 18 -18 22 -12 7 -11 12 7 24 16 11 20 24 18
53 -2 44 -10 44 -28 0 -7 -16 -17 -30 -22 -30 -5 0 -6 -4 -3 -10 3 -5 2 -10
-3 -10 -13 0 -20 -66 -10 -84 9 -16 -15 -17 -29 -1 -4 4 -3 5 3 2 15 -8 16 41
1 50 -6 4 -7 1 -3 -6 5 -7 -4 -29 -20 -52 -15 -22 -27 -53 -27 -70 0 -30 -1
-30 -12 -9 -7 13 -15 18 -18 12 -4 -5 0 -15 8 -22 8 -7 15 -17 15 -22 0 -6 -7
-5 -16 3 -13 10 -17 10 -24 -1 -10 -16 -2 -41 19 -56 24 -18 44 -10 45 19 1
20 -1 23 -11 15 -7 -6 -13 -7 -13 -2 0 16 18 38 34 40 12 2 13 -3 5 -24 -6
-14 -6 -29 -1 -34 16 -16 37 24 37 71 0 40 3 46 19 43 15 -3 17 0 11 15 -4 10
-8 35 -10 56 -2 37 -2 37 16 16 13 -15 16 -27 9 -43 -5 -13 -4 -29 1 -37 7
-11 9 -11 9 3 0 10 14 33 31 53 17 19 26 35 19 35 -6 0 -8 5 -4 12 4 7 3 8 -4
4 -8 -5 -10 -1 -5 10 6 16 7 15 20 -2 8 -11 13 -13 13 -5 0 8 9 22 21 32 12
10 18 23 13 30 -4 8 -3 9 4 5 6 -4 19 6 29 21 10 15 23 32 30 36 16 10 17 27
2 27 -5 0 -7 -5 -3 -12 4 -7 3 -8 -4 -4 -6 4 -9 13 -5 21 3 9 -1 15 -10 15
-23 0 -16 44 8 48 11 2 25 9 30 14 7 8 4 9 -9 4 -19 -7 -19 -6 -1 14 10 11 23
20 29 19 6 0 6 -3 -1 -6 -7 -2 -13 -9 -13 -14 0 -17 21 -9 45 19 13 15 25 21
25 15 0 -7 -4 -13 -8 -13 -5 0 -15 -11 -22 -25 -7 -13 -16 -22 -20 -20 -10 6
-18 -16 -13 -32 4 -12 95 87 119 128 6 11 19 25 28 32 21 16 29 54 11 54 -8 0
-12 -4 -9 -9 8 -12 -3 -10 -35 7 -26 13 -30 13 -46 -5z m75 -30 c0 -5 -7 -10
-16 -10 -8 0 -12 5 -9 10 3 6 10 10 16 10 5 0 9 -4 9 -10z m-42 -23 c6 -7 8
-18 4 -24 -5 -7 -11 -3 -19 13 -12 26 -3 33 15 11z m-13 -47 c3 -5 1 -10 -4
-10 -6 0 -11 5 -11 10 0 6 2 10 4 10 3 0 8 -4 11 -10z m-141 -166 c3 -8 2 -12
-4 -9 -6 3 -10 10 -10 16 0 14 7 11 14 -7z m-137 -86 c-3 -8 -6 -5 -6 6 -1 11
2 17 5 13 3 -3 4 -12 1 -19z m-7 -28 c0 -5 -4 -10 -10 -10 -5 0 -10 5 -10 10
0 6 5 10 10 10 6 0 10 -4 10 -10z m-64 -216 c-4 -9 -9 -15 -11 -12 -3 3 -3 13
1 22 4 9 9 15 11 12 3 -3 3 -13 -1 -22z m-67 -49 c0 -5 -8 1 -18 15 -11 13
-17 29 -14 34 6 9 32 -31 32 -49z"/>
<path d="M2670 7159 c0 -5 5 -7 10 -4 6 3 10 8 10 11 0 2 -4 4 -10 4 -5 0 -10
-5 -10 -11z"/>
<path d="M2318 6645 c-10 -13 -18 -27 -18 -32 0 -4 5 -1 10 7 7 11 8 5 3 -20
-6 -32 -5 -34 10 -21 15 12 17 11 17 -8 0 -18 -3 -20 -19 -12 -21 12 -31 5
-31 -21 0 -10 -10 -28 -22 -40 -38 -38 -82 -108 -60 -95 16 10 53 -14 63 -40
8 -22 12 -24 19 -13 6 8 10 23 10 32 0 9 3 18 8 20 13 6 42 77 36 92 -3 8 -1
17 5 21 6 3 11 0 11 -7 0 -9 3 -9 10 2 13 19 13 33 0 25 -10 -6 -17 17 -24 83
-3 24 -6 45 -8 47 -2 2 -11 -7 -20 -20z m12 -107 c0 -9 4 -8 11 2 9 12 9 11 4
-5 -4 -11 -8 -27 -9 -35 -1 -8 -6 -15 -11 -15 -6 0 -9 11 -7 25 2 14 1 22 -3
19 -7 -7 -27 -115 -26 -143 0 -18 0 -18 -14 0 -22 29 -19 91 5 104 12 6 20 21
20 35 0 16 6 25 15 25 8 0 15 -6 15 -12z"/>
<path d="M2279 6595 c0 -6 -2 -17 -4 -25 -15 -60 -15 -62 5 -26 13 27 17 43
10 50 -6 6 -10 6 -11 1z"/>
<path d="M2234 6334 c6 -71 21 -90 34 -43 10 37 5 59 -9 38 -7 -11 -9 -9 -7 6
2 36 -2 55 -12 55 -7 0 -9 -21 -6 -56z m26 -39 c0 -8 -2 -15 -4 -15 -2 0 -6 7
-10 15 -3 8 -1 15 4 15 6 0 10 -7 10 -15z"/>
<path d="M2918 6928 c-13 -18 -23 -37 -23 -43 0 -5 -8 -9 -17 -9 -11 1 -14 -4
-11 -14 4 -10 2 -13 -5 -8 -13 8 -17 -6 -6 -17 8 -8 42 29 55 58 5 11 16 30
25 43 9 12 14 22 11 22 -3 0 -16 -15 -29 -32z"/>
<path d="M4952 6829 c5 -4 -5 -11 -23 -18 -18 -6 -34 -9 -37 -6 -2 2 -33 -16
-67 -40 -66 -48 -86 -56 -64 -27 13 15 12 16 -3 3 -10 -7 -16 -17 -13 -21 2
-4 -10 -20 -28 -36 -27 -25 -29 -25 -12 -4 16 20 14 19 -13 -5 -41 -37 -76
-91 -67 -105 4 -6 1 -9 -5 -8 -17 4 -49 -83 -60 -163 -42 -296 212 -580 520
-579 329 1 591 273 550 572 -14 106 -73 219 -155 303 -36 36 -70 63 -75 60 -6
-3 -10 -1 -10 5 0 6 -34 27 -76 46 -80 36 -88 39 -80 25 3 -4 -16 -4 -42 1
-51 9 -256 7 -240 -3z m353 -131 c52 -26 112 -83 136 -130 25 -48 26 -144 2
-178 -38 -55 -46 -53 -64 11 -23 84 -79 161 -148 204 -60 38 -153 70 -177 61
-27 -10 -14 13 16 29 73 38 162 39 235 3z m229 -346 c21 -140 -76 -306 -136
-232 -26 32 -23 47 26 127 43 68 76 146 76 181 1 29 27 -29 34 -76z"/>
<path d="M4905 6820 c-3 -6 1 -7 9 -4 18 7 21 14 7 14 -6 0 -13 -4 -16 -10z"/>
<path d="M4437 6388 c-7 -96 3 -162 25 -166 15 -3 17 10 20 117 3 117 2 121
-18 121 -19 0 -22 -7 -27 -72z"/>
<path d="M5704 6340 c0 -116 1 -121 21 -118 19 3 20 11 23 121 l3 117 -24 0
c-24 0 -24 0 -23 -120z"/>
<path d="M6785 4429 c-33 -5 -73 -11 -90 -14 l-30 -5 2 -251 c2 -139 4 -254 6
-256 4 -3 137 13 190 23 l27 6 0 254 0 254 -22 -1 c-13 -1 -50 -5 -83 -10z"/>
<path d="M5376 4165 c-41 -98 -142 -432 -133 -441 4 -4 149 14 153 19 0 1 4
104 7 230 7 230 2 262 -27 192z"/>
<path d="M5850 4155 c54 -91 213 -324 224 -327 6 -2 33 -1 60 2 l50 5 -106
115 c-84 92 -170 176 -246 240 -3 3 5 -13 18 -35z"/>
<path d="M2525 5250 c-3 -5 -2 -10 4 -10 5 0 13 5 16 10 3 6 2 10 -4 10 -5 0
-13 -4 -16 -10z"/>
<path d="M2467 5223 c-4 -3 0 -12 8 -19 8 -8 12 -23 10 -34 -3 -17 -1 -19 15
-10 25 13 33 27 20 35 -6 4 -9 1 -8 -6 2 -6 -2 -13 -9 -16 -7 -3 -11 3 -9 14
4 18 -17 46 -27 36z"/>
<path d="M2545 5221 c-2 -5 4 -11 15 -14 11 -3 20 -2 20 3 0 12 -28 21 -35 11z"/>
<path d="M2380 5145 c-7 -9 -8 -15 -2 -15 5 0 12 7 16 15 3 8 4 15 2 15 -2 0
-9 -7 -16 -15z"/>
<path d="M2404 5109 c-2 -4 4 -13 13 -20 10 -8 14 -9 10 -2 -4 7 0 16 10 22
16 9 15 10 -5 8 -13 -1 -25 -4 -28 -8z"/>
<path d="M2292 4895 c0 -16 2 -22 5 -12 2 9 2 23 0 30 -3 6 -5 -1 -5 -18z"/>
<path d="M2270 4866 c0 -8 4 -17 9 -20 5 -4 7 3 4 14 -6 23 -13 26 -13 6z"/>
<path d="M2192 4750 c0 -14 2 -19 5 -12 2 6 2 18 0 25 -3 6 -5 1 -5 -13z"/>
<path d="M2210 4618 c0 -9 -6 -19 -12 -21 -10 -4 -10 -6 0 -6 14 -1 28 26 18
36 -3 4 -6 -1 -6 -9z"/>
<path d="M2102 4320 c0 -14 2 -19 5 -12 2 6 2 18 0 25 -3 6 -5 1 -5 -13z"/>
<path d="M2041 4234 c0 -11 3 -14 6 -6 3 7 2 16 -1 19 -3 4 -6 -2 -5 -13z"/>
<path d="M2020 4190 c-13 -8 -12 -10 3 -10 9 0 17 5 17 10 0 12 -1 12 -20 0z"/>
<path d="M2003 4130 c-7 -10 -9 -22 -4 -25 5 -3 11 1 14 7 2 7 8 10 12 6 5 -5
0 -16 -9 -27 -16 -18 -16 -19 0 -17 11 0 20 -7 22 -19 3 -17 1 -18 -8 -5 -9
12 -10 10 -5 -8 5 -17 1 -29 -14 -43 -12 -11 -21 -30 -20 -42 1 -21 1 -21 9 3
7 21 8 22 10 5 1 -11 10 4 21 35 11 30 17 61 14 68 -2 7 1 22 7 32 11 16 9 22
-7 34 -26 20 -28 20 -42 -4z"/>
<path d="M1982 4080 c0 -14 2 -19 5 -12 2 6 2 18 0 25 -3 6 -5 1 -5 -13z"/>
<path d="M1948 3995 c-3 -6 -8 -23 -12 -40 l-6 -30 16 28 c8 16 14 33 11 40
-2 6 -6 7 -9 2z"/>
<path d="M1910 3872 c0 -21 2 -24 10 -12 8 12 10 11 10 -5 0 -12 -5 -26 -12
-33 -7 -7 -8 -12 -2 -12 16 0 33 36 27 58 -8 33 -33 36 -33 4z"/>
<path d="M1960 3848 c-22 -52 -22 -54 -7 -35 11 13 16 15 19 5 3 -7 5 4 6 25
1 20 0 37 -1 37 -1 0 -9 -15 -17 -32z"/>
<path d="M1851 3447 c-8 -10 -7 -14 4 -14 8 0 15 6 15 14 0 7 -2 13 -4 13 -2
0 -9 -6 -15 -13z"/>
<path d="M1763 3310 c2 -32 4 -37 13 -25 12 16 7 65 -6 65 -4 0 -7 -18 -7 -40z"/>
<path d="M1807 3323 c-3 -5 -1 -17 4 -28 7 -17 8 -17 8 8 1 27 -4 34 -12 20z"/>
<path d="M1786 3254 c-4 -14 -5 -28 -3 -31 3 -2 8 8 11 23 4 14 5 28 3 31 -3
2 -8 -8 -11 -23z"/>
<path d="M1741 3244 c0 -11 3 -14 6 -6 3 7 2 16 -1 19 -3 4 -6 -2 -5 -13z"/>
<path d="M1767 3166 c-4 -9 -2 -16 2 -16 5 0 7 -10 5 -22 -4 -23 -4 -23 6 0 6
14 6 30 1 39 -7 13 -9 13 -14 -1z"/>
<path d="M1731 3084 c0 -11 3 -14 6 -6 3 7 2 16 -1 19 -3 4 -6 -2 -5 -13z"/>
<path d="M1945 3060 c-19 -8 -19 -9 2 -9 12 -1 30 -4 40 -7 13 -4 15 -3 4 4
-11 8 -11 10 0 15 9 3 6 5 -6 6 -11 0 -29 -4 -40 -9z"/>
<path d="M1710 3051 c0 -6 4 -13 10 -16 6 -3 7 1 4 9 -7 18 -14 21 -14 7z"/>
<path d="M1722 2985 c0 -16 2 -22 5 -12 2 9 2 23 0 30 -3 6 -5 -1 -5 -18z"/>
<path d="M1742 2980 c0 -14 2 -19 5 -12 2 6 2 18 0 25 -3 6 -5 1 -5 -13z"/>
<path d="M2662 4208 c-18 -46 -45 -121 -62 -168 -17 -47 -34 -90 -38 -97 -4
-7 -66 -20 -139 -29 l-132 -17 -21 -48 c-22 -53 -24 -65 -11 -74 5 -3 105 9
223 25 207 30 479 64 606 77 34 3 65 10 68 15 3 4 -9 33 -26 64 l-32 55 -46
-7 c-26 -3 -81 -12 -122 -19 -41 -7 -78 -11 -81 -9 -3 2 -37 73 -74 159 -37
85 -71 155 -75 155 -4 0 -21 -37 -38 -82z"/>
<path d="M2815 3665 c-181 -24 -369 -49 -416 -55 l-86 -13 -47 -122 c-25 -68
-46 -125 -46 -127 0 -2 16 -2 35 0 33 4 36 8 64 81 16 42 32 86 35 97 5 18 17
23 64 28 252 30 335 40 462 57 l145 19 17 -22 c9 -12 29 -49 45 -81 l28 -59
84 7 c135 11 132 7 66 106 -85 124 -89 128 -105 127 -8 0 -163 -20 -345 -43z"/>
<path d="M5273 3473 c9 -2 23 -2 30 0 6 3 -1 5 -18 5 -16 0 -22 -2 -12 -5z"/>
<path d="M4648 3393 c7 -3 16 -2 19 1 4 3 -2 6 -13 5 -11 0 -14 -3 -6 -6z"/>
<path d="M4968 3393 c6 -2 18 -2 25 0 6 3 1 5 -13 5 -14 0 -19 -2 -12 -5z"/>
<path d="M3888 3299 c-22 -12 -12 -39 14 -39 17 0 18 3 9 14 -8 10 -9 16 -1
21 5 3 10 1 10 -5 0 -6 5 -8 11 -4 8 4 7 9 -2 15 -17 11 -20 11 -41 -2z"/>
<path d="M3955 3290 c3 -5 1 -10 -4 -10 -6 0 -11 -5 -11 -11 0 -8 4 -8 14 0 7
6 21 9 30 5 11 -4 16 -1 16 10 0 11 -9 16 -26 16 -14 0 -23 -4 -19 -10z"/>
<path d="M2166 2545 c4 -8 8 -15 10 -15 2 0 4 7 4 15 0 8 -4 15 -10 15 -5 0
-7 -7 -4 -15z"/>
<path d="M2244 2495 c5 -13 -5 -19 -26 -16 -4 0 -5 -6 -1 -15 4 -12 8 -12 13
-4 5 9 10 6 15 -9 3 -11 11 -21 16 -21 13 0 11 18 -3 23 -10 4 -10 7 0 15 14
9 6 42 -10 42 -6 0 -8 -7 -4 -15z"/>
<path d="M2231 2406 c-7 -8 -8 -17 -3 -20 6 -3 13 1 16 10 9 23 2 28 -13 10z"/>
<path d="M7646 2175 c-11 -8 -15 -15 -10 -15 6 0 19 7 30 15 10 8 15 14 9 14
-5 0 -19 -6 -29 -14z"/>
<path d="M7596 2074 c-4 -9 -13 -14 -22 -10 -9 4 -13 2 -8 -5 4 -6 0 -15 -7
-20 -10 -6 -10 -9 -2 -9 13 0 53 39 53 52 0 13 -7 9 -14 -8z"/>
<path d="M7455 1936 c-17 -21 -35 -32 -44 -29 -12 3 -12 2 1 -7 15 -9 23 -5
48 20 26 26 38 50 27 50 -2 0 -16 -15 -32 -34z"/>
<path d="M7425 1940 c-10 -11 -13 -20 -8 -20 13 0 38 29 31 35 -3 3 -13 -4
-23 -15z"/>
<path d="M7345 1870 c-10 -11 -13 -20 -8 -20 13 0 38 29 31 35 -3 3 -13 -4
-23 -15z"/>
<path d="M3649 1629 c-30 -30 -11 -78 33 -79 22 0 48 27 48 50 0 22 -26 50
-46 50 -8 0 -23 -9 -35 -21z"/>
</g>
</svg>
